<?xml version="1.0" encoding="UTF-8"?>
<svg id="Layer_1" data-name="Layer 1" xmlns="http://www.w3.org/2000/svg" viewBox="0 0 80 59">
  <defs>
    <style>
      .cls-1 {
        fill: #fff;
        stroke-width: 0px;
      }
    </style>
  </defs>
  <path class="cls-1" d="M41.69,43.54c.3-.11.57-.09.81.07.05.05.08.11.08.17s-.03.12-.08.17c-.07.09-.14.16-.23.22-1.38.86-2.76,1.44-4.14,1.75-1.39.31-2.8.3-4.21-.04-1.76-.42-3.25-1.2-4.47-2.34-.52-.5-1.03-1.02-1.51-1.56-.25-.26-.51-.52-.76-.79-.15-.17-.28-.25-.4-.25-.12,0-.29.08-.51.24-1.15.88-2.38,1.69-3.68,2.44-1.81,1.05-3.72,1.85-5.72,2.4-1.81.47-3.58.61-5.3.41-1.44-.17-2.61-.68-3.51-1.53-1.55-1.48-1.71-3.32-.48-5.51.94-1.6,2.25-2.97,3.91-4.12.14-.1.29-.19.44-.28.16-.09.3-.18.44-.28.29-.2.34-.42.15-.64-.14-.11-.26-.24-.38-.37-.08-.07-.15-.15-.21-.22-3.01-3.11-5.09-6.21-6.21-9.3-1.13-3.1-1.49-6.04-1.08-8.81.41-2.76,1.38-5.23,2.9-7.41,1.51-2.16,3.35-3.91,5.51-5.25,2.14-1.33,4.39-2.17,6.77-2.54,2.35-.36,4.6-.17,6.76.57,2.14.74,4.02,2.1,5.66,4.07,2.02,2.56,3.37,5.39,4.04,8.52.55,2.27.73,5,.54,8.19-.14,2.44-.72,4.97-1.74,7.57-1.03,2.62-2.54,5.23-4.55,7.84-.34.43-.69.83-1.05,1.22-.18.22-.36.42-.54.62-.22.25-.34.44-.36.55-.03.11.04.25.2.42.5.6,1.02,1.19,1.55,1.76s1.09,1.1,1.69,1.6c.94.72,2.01,1.26,3.21,1.6,1.72.5,3.49.28,5.33-.66.05-.02.09-.05.13-.07.34-.16.67-.32,1.01-.47ZM27.36,37.83c.44-.3.79-.66,1.06-1.08.04-.07.08-.14.14-.21,1.94-2.48,3.41-5.08,4.41-7.8,1.37-3.72,1.92-7.4,1.66-11.06-.1-1.59-.35-3.14-.72-4.64-.38-1.51-.92-2.97-1.62-4.39-.46-.92-.99-1.8-1.6-2.62-.61-.83-1.34-1.57-2.21-2.23-2.31-1.62-4.62-2.5-6.94-2.63s-4.55.36-6.59,1.49c-2.06,1.13-3.79,2.75-5.19,4.85-1.41,2.11-2.3,4.55-2.68,7.3-.38,2.76-.08,5.65.9,8.65.98,2.99,2.81,5.92,5.46,8.76.12.12.22.23.32.35l.64.66c.25.31.63.4,1.13.27.14-.03.27-.06.4-.08l.26-.03c1.44-.28,2.76-.31,3.97-.09,1.2.22,2.3.64,3.31,1.26.59.35,1.13.75,1.6,1.18.48.44.93.89,1.37,1.35.07.07.15.15.22.23.07.12.16.22.27.32.11.1.25.16.44.2ZM25.31,39.97c.29-.27.34-.52.14-.76-.15-.15-.29-.31-.44-.46-.48-.54-.96-1.07-1.44-1.59-.91-.95-2.01-1.7-3.3-2.27-.94-.41-2-.6-3.16-.58-.15,0-.31.03-.47.09-.16.05-.31.16-.45.33.19.22.41.4.66.55s.52.28.8.4c.15.08.3.15.43.23.11.07.15.17.11.3-.04.14-.12.24-.26.3-.63.3-1.21.34-1.75.12-.48-.23-.95-.47-1.42-.74-.08-.04-.16-.08-.26-.14-.19-.1-.34-.17-.45-.21-.11-.03-.22-.02-.34.05-.12.06-.29.17-.53.32-1.41,1.03-2.5,2.25-3.28,3.65-.9,1.62-.82,3.03.24,4.19.69.79,1.55,1.28,2.57,1.47,1.01.19,2.13.13,3.35-.17,1.78-.46,3.43-1.14,4.96-2.04,1.51-.89,2.94-1.9,4.28-3.05Z"/>
  <path class="cls-1" d="M49.83,30.34c.16,0,.13.2-.08.63s-.57.93-1.06,1.51c-.49.59-1.05,1.11-1.67,1.57-.62.47-1.25.73-1.87.79-.46.02-.81-.06-1.03-.24-.22-.18-.38-.39-.46-.64-.08-.25-.13-.47-.15-.66-.02-.13-.04-.23-.06-.3s-.07-.06-.14,0c-.48,1.09-1.33,1.72-2.54,1.89-.68.1-1.23-.1-1.66-.58-.43-.49-.7-1.13-.81-1.94-.11-.81-.02-1.66.27-2.54.07-.29.26-.5.56-.65.22-.1.45-.13.68-.06.23.06.35.19.37.37,0,.18-.02.37-.05.56-.03.14-.06.28-.08.4-.03.51-.03,1.06.03,1.65.05.59.23,1.08.53,1.47.29.3.61.29.96,0,.35-.3.66-.74.93-1.31.2-.45.36-.9.48-1.33.12-.43.19-.77.23-1,.03-.1.05-.16.05-.19.05-.19.1-.37.15-.54.08-.27.17-.53.25-.78.15-.49.51-.73,1.09-.73.35-.01.54.12.57.41.03.39.04.78.02,1.18-.02.41-.04.81-.07,1.21-.03.58-.06,1.15-.07,1.71-.02.82.16,1.27.53,1.35s.82-.07,1.35-.45c.53-.38,1.04-.87,1.52-1.46.05-.05.11-.12.17-.2.1-.13.21-.28.35-.44.14-.16.27-.3.4-.42.13-.12.23-.2.31-.22Z"/>
  <path class="cls-1" d="M61.66,28.52c-.17.38-.41.78-.75,1.21-.94,1.23-1.82,2.04-2.64,2.42-.82.39-1.6.49-2.34.31-.74-.18-1.15-.84-1.23-1.98-.72,1.41-1.41,2.35-2.07,2.81-.66.46-1.34.7-2.04.72-.83,0-1.39-.21-1.68-.65-.28-.43-.38-.96-.28-1.59.1-.63.3-1.25.61-1.85.24-.45.57-.88.99-1.29.42-.41.86-.75,1.34-1.02.56-.34,1.12-.53,1.7-.59.57-.06,1.18.04,1.82.3.02.01.02,0,.02-.05,0-.06.02-.13.05-.23.03-.09.09-.17.16-.24.22-.17.47-.28.77-.32s.52.07.67.33c.03.35-.02.8-.14,1.36-.23,1.23-.25,2.08-.06,2.55s.57.64,1.13.52c.56-.11,1.19-.53,1.89-1.23.64-.65,1.3-1.75,2-3.28,0-.17.07-.3.21-.38.14-.08.31-.14.51-.16.16-.02.31,0,.44.06.13.06.21.21.26.45,0,.09.01.22.03.41.02.18.03.35.03.49.01.21.03.36.06.43.02.08.09.06.19-.04.1-.1.27-.32.49-.67.39-.62.85-1.17,1.4-1.64.51-.42,1.08-.64,1.69-.66.54-.01.89.22,1.05.68.09.23.13.47.13.72s-.01.5-.04.76-.06.52-.09.8c-.01.09-.02.17-.02.26-.1.94-.08,1.55.07,1.84.14.29.55.27,1.2-.05.65-.32,1.17-1.07,1.54-2.23.2-.65.31-.71.34-.2.03.51-.12,1.06-.45,1.65-.33.59-.74,1.09-1.22,1.48-.65.53-1.25.8-1.81.8-.56,0-.95-.26-1.16-.78-.21-.53-.27-1.22-.16-2.07v-.11c.03-.15.06-.36.1-.64.04-.28.06-.57.08-.88.01-.3,0-.54-.04-.73-.04-.19-.13-.24-.26-.17-.35.23-.7.64-1.05,1.24-.35.6-.65,1.21-.92,1.85-.27.64-.47,1.15-.6,1.55-.04.12-.09.25-.13.39l-.18.54c-.21.52-.56.76-1.05.71-.27-.02-.42-.16-.45-.41-.02-.2-.03-.39-.05-.58v-.32c-.02-.86-.04-1.73-.07-2.59ZM50.82,32.73c.34.18.72.09,1.15-.25.43-.34.84-.8,1.23-1.37.39-.57.72-1.13.99-1.68s.42-.95.45-1.21c-.8-.3-1.49-.27-2.07.07-.58.34-1.04.84-1.38,1.48-.34.65-.55,1.26-.62,1.85-.07.58.01.96.25,1.12Z"/>
  <path class="cls-1" d="M53.72,21.47c.31.54.6,1.08.87,1.63.09.17.18.33.26.5.03.07.05.13.07.19v.07c0,.25-.11.4-.33.46-.36.13-.67.08-.92-.16-.11-.11-.2-.24-.26-.39-.06-.16-.11-.32-.14-.49-.06-.24-.14-.46-.24-.64-.08-.14-.19-.22-.33-.24-.14-.02-.26.03-.36.16-.08.11-.18.26-.31.45s-.25.36-.36.52c-.1.14-.18.27-.24.36-.3.44-.56.67-.77.7-.21.03-.34-.05-.4-.26-.06-.2,0-.44.18-.71.11-.18.23-.36.36-.56.32-.5.65-1,1-1.49.29-.36.62-.55,1-.56.38-.02.68.14.9.47Z"/>
  <path class="cls-1" d="M40.19,52.91l8.29-1.61c8.17-1.58,16.7-3.28,25.53-5.07.15-.03.29-.06.44-.11.29-.06.53-.11.71-.18s.31-.14.38-.23c.07-.32-.51-.37-1.74-.15-6.55,1.13-13.43,2.37-20.68,3.71l-4.62.84-8.42,1.58-25.05,4.7c-2.03.38-4.07.79-6.14,1.22-1.67.34-2.51.7-2.51,1.09,0,.37.84.41,2.51.14.62-.1,1.29-.21,2.02-.35l5.63-1.07c7.84-1.47,15.74-2.97,23.68-4.49Z"/>
</svg>